<mxfile host="65bd71144e">
    <diagram id="mxB6mMjJuMJV-sWbwtRB" name="Request_Tools">
        <mxGraphModel dx="903" dy="617" grid="1" gridSize="10" guides="1" tooltips="1" connect="1" arrows="1" fold="1" page="1" pageScale="1" pageWidth="850" pageHeight="1100" math="0" shadow="0">
            <root>
                <mxCell id="0"/>
                <mxCell id="1" parent="0"/>
                <mxCell id="2" value="Flow Process Request Tools" style="swimlane;whiteSpace=wrap;html=1;" parent="1" vertex="1">
                    <mxGeometry x="40" y="40" width="620" height="1270" as="geometry"/>
                </mxCell>
                <mxCell id="3" value="User" style="swimlane;whiteSpace=wrap;html=1;fillColor=#18141D;fontStyle=0" parent="2" vertex="1">
                    <mxGeometry y="23" width="320" height="1247" as="geometry"/>
                </mxCell>
                <mxCell id="eimfiaYAnzhwU4aO0XSJ-42" value="" style="edgeStyle=orthogonalEdgeStyle;html=1;" parent="3" source="6" target="eimfiaYAnzhwU4aO0XSJ-41" edge="1">
                    <mxGeometry relative="1" as="geometry"/>
                </mxCell>
                <mxCell id="6" value="Start" style="ellipse;whiteSpace=wrap;html=1;" parent="3" vertex="1">
                    <mxGeometry x="120.5" y="57" width="79.5" height="53" as="geometry"/>
                </mxCell>
                <mxCell id="38" style="edgeStyle=orthogonalEdgeStyle;html=1;" parent="3" source="30" target="37" edge="1">
                    <mxGeometry relative="1" as="geometry"/>
                </mxCell>
                <mxCell id="41" value="Yes" style="edgeLabel;html=1;align=center;verticalAlign=middle;resizable=0;points=[];" parent="38" vertex="1" connectable="0">
                    <mxGeometry x="-0.3275" y="-3" relative="1" as="geometry">
                        <mxPoint y="1" as="offset"/>
                    </mxGeometry>
                </mxCell>
                <mxCell id="47v2Y7hkr8jVsnxDOxSQ-44" value="No" style="edgeStyle=orthogonalEdgeStyle;html=1;" parent="3" source="30" target="47v2Y7hkr8jVsnxDOxSQ-43" edge="1">
                    <mxGeometry relative="1" as="geometry"/>
                </mxCell>
                <mxCell id="30" value="Confirm?" style="rhombus;whiteSpace=wrap;html=1;rounded=0;" parent="3" vertex="1">
                    <mxGeometry x="120.5" y="1012" width="80" height="80" as="geometry"/>
                </mxCell>
                <mxCell id="37" value="End" style="ellipse;whiteSpace=wrap;html=1;" parent="3" vertex="1">
                    <mxGeometry x="120.5" y="1132" width="79.5" height="53" as="geometry"/>
                </mxCell>
                <mxCell id="Mlo7qx1cXoMHDnj-Wq_2-42" value="" style="edgeStyle=orthogonalEdgeStyle;html=1;" parent="3" source="eimfiaYAnzhwU4aO0XSJ-41" target="Mlo7qx1cXoMHDnj-Wq_2-41" edge="1">
                    <mxGeometry relative="1" as="geometry"/>
                </mxCell>
                <mxCell id="42" value="No" style="edgeLabel;html=1;align=center;verticalAlign=middle;resizable=0;points=[];" vertex="1" connectable="0" parent="Mlo7qx1cXoMHDnj-Wq_2-42">
                    <mxGeometry x="-0.6625" y="-1" relative="1" as="geometry">
                        <mxPoint as="offset"/>
                    </mxGeometry>
                </mxCell>
                <mxCell id="eimfiaYAnzhwU4aO0XSJ-41" value="Booking?" style="rhombus;whiteSpace=wrap;html=1;" parent="3" vertex="1">
                    <mxGeometry x="119.75" y="157" width="80" height="80" as="geometry"/>
                </mxCell>
                <mxCell id="47v2Y7hkr8jVsnxDOxSQ-45" style="edgeStyle=orthogonalEdgeStyle;html=1;" parent="3" source="47v2Y7hkr8jVsnxDOxSQ-43" edge="1">
                    <mxGeometry relative="1" as="geometry">
                        <mxPoint x="240.75" y="934" as="targetPoint"/>
                    </mxGeometry>
                </mxCell>
                <mxCell id="47v2Y7hkr8jVsnxDOxSQ-46" value="Yes" style="edgeLabel;html=1;align=center;verticalAlign=middle;resizable=0;points=[];" parent="47v2Y7hkr8jVsnxDOxSQ-45" vertex="1" connectable="0">
                    <mxGeometry x="-0.1646" y="-2" relative="1" as="geometry">
                        <mxPoint x="1" as="offset"/>
                    </mxGeometry>
                </mxCell>
                <mxCell id="47v2Y7hkr8jVsnxDOxSQ-64" value="No" style="edgeStyle=orthogonalEdgeStyle;html=1;" parent="3" source="47v2Y7hkr8jVsnxDOxSQ-43" edge="1">
                    <mxGeometry relative="1" as="geometry">
                        <mxPoint x="79.74999999999989" y="934" as="targetPoint"/>
                    </mxGeometry>
                </mxCell>
                <mxCell id="47v2Y7hkr8jVsnxDOxSQ-43" value="Edit?" style="rhombus;whiteSpace=wrap;html=1;rounded=0;" parent="3" vertex="1">
                    <mxGeometry x="121.25" y="894" width="80" height="80" as="geometry"/>
                </mxCell>
                <mxCell id="fIdX4Pt1htxG96-3jqpG-57" value="No" style="edgeStyle=orthogonalEdgeStyle;html=1;" parent="3" source="fIdX4Pt1htxG96-3jqpG-42" target="fIdX4Pt1htxG96-3jqpG-56" edge="1">
                    <mxGeometry relative="1" as="geometry"/>
                </mxCell>
                <mxCell id="fIdX4Pt1htxG96-3jqpG-42" value="Continue?" style="rhombus;whiteSpace=wrap;html=1;" parent="3" vertex="1">
                    <mxGeometry x="121.25" y="493" width="80" height="80" as="geometry"/>
                </mxCell>
                <mxCell id="fIdX4Pt1htxG96-3jqpG-59" style="edgeStyle=orthogonalEdgeStyle;html=1;" parent="3" source="fIdX4Pt1htxG96-3jqpG-56" edge="1">
                    <mxGeometry relative="1" as="geometry">
                        <mxPoint x="159.75" y="718" as="targetPoint"/>
                    </mxGeometry>
                </mxCell>
                <mxCell id="fIdX4Pt1htxG96-3jqpG-56" value="Reject Booking" style="rounded=0;whiteSpace=wrap;html=1;" parent="3" vertex="1">
                    <mxGeometry x="110.75" y="628" width="100" height="50" as="geometry"/>
                </mxCell>
                <mxCell id="Mlo7qx1cXoMHDnj-Wq_2-41" value="A" style="ellipse;whiteSpace=wrap;html=1;" parent="3" vertex="1">
                    <mxGeometry x="26.75" y="170.5" width="53" height="53" as="geometry"/>
                </mxCell>
                <mxCell id="Mlo7qx1cXoMHDnj-Wq_2-44" value="B" style="ellipse;whiteSpace=wrap;html=1;" parent="3" vertex="1">
                    <mxGeometry x="133.25" y="718" width="53" height="53" as="geometry"/>
                </mxCell>
                <mxCell id="Mlo7qx1cXoMHDnj-Wq_2-45" value="B" style="ellipse;whiteSpace=wrap;html=1;" parent="3" vertex="1">
                    <mxGeometry x="26.75" y="907.5" width="53" height="53" as="geometry"/>
                </mxCell>
                <mxCell id="Mlo7qx1cXoMHDnj-Wq_2-46" value="A" style="ellipse;whiteSpace=wrap;html=1;" parent="3" vertex="1">
                    <mxGeometry x="240" y="907.5" width="53" height="53" as="geometry"/>
                </mxCell>
                <mxCell id="Mlo7qx1cXoMHDnj-Wq_2-48" value="B" style="ellipse;whiteSpace=wrap;html=1;" parent="3" vertex="1">
                    <mxGeometry x="26.75" y="1132" width="53" height="53" as="geometry"/>
                </mxCell>
                <mxCell id="5" value="Tool Store" style="swimlane;whiteSpace=wrap;html=1;" parent="2" vertex="1">
                    <mxGeometry x="320" y="22" width="300" height="1248" as="geometry"/>
                </mxCell>
                <mxCell id="25" style="edgeStyle=orthogonalEdgeStyle;html=1;entryX=0.5;entryY=0;entryDx=0;entryDy=0;" parent="5" source="22" target="24" edge="1">
                    <mxGeometry relative="1" as="geometry"/>
                </mxCell>
                <mxCell id="22" value="Select / Scan Barcode Tools" style="rounded=0;whiteSpace=wrap;html=1;" parent="5" vertex="1">
                    <mxGeometry x="100" y="828" width="100" height="50" as="geometry"/>
                </mxCell>
                <mxCell id="27" style="edgeStyle=orthogonalEdgeStyle;html=1;" parent="5" source="24" target="26" edge="1">
                    <mxGeometry relative="1" as="geometry"/>
                </mxCell>
                <mxCell id="24" value="Input / Scan ID Card" style="rounded=0;whiteSpace=wrap;html=1;" parent="5" vertex="1">
                    <mxGeometry x="100" y="928" width="100" height="50" as="geometry"/>
                </mxCell>
                <mxCell id="26" value="Input / Scan Jobcard" style="rounded=0;whiteSpace=wrap;html=1;" parent="5" vertex="1">
                    <mxGeometry x="100" y="1028" width="100" height="50" as="geometry"/>
                </mxCell>
                <mxCell id="40" style="edgeStyle=orthogonalEdgeStyle;html=1;" parent="5" target="22" edge="1">
                    <mxGeometry relative="1" as="geometry">
                        <mxPoint x="150" y="780.9999999999998" as="sourcePoint"/>
                    </mxGeometry>
                </mxCell>
                <mxCell id="47v2Y7hkr8jVsnxDOxSQ-41" style="edgeStyle=orthogonalEdgeStyle;html=1;" parent="5" source="eimfiaYAnzhwU4aO0XSJ-114" target="eimfiaYAnzhwU4aO0XSJ-45" edge="1">
                    <mxGeometry relative="1" as="geometry"/>
                </mxCell>
                <mxCell id="eimfiaYAnzhwU4aO0XSJ-114" value="Select Booking" style="rounded=0;whiteSpace=wrap;html=1;" parent="5" vertex="1">
                    <mxGeometry x="100" y="173" width="100" height="50" as="geometry"/>
                </mxCell>
                <mxCell id="47v2Y7hkr8jVsnxDOxSQ-42" style="edgeStyle=orthogonalEdgeStyle;html=1;entryX=0.5;entryY=0;entryDx=0;entryDy=0;" parent="5" source="eimfiaYAnzhwU4aO0XSJ-45" target="eimfiaYAnzhwU4aO0XSJ-49" edge="1">
                    <mxGeometry relative="1" as="geometry"/>
                </mxCell>
                <mxCell id="eimfiaYAnzhwU4aO0XSJ-45" value="Record at Cart List" style="rounded=0;whiteSpace=wrap;html=1;" parent="5" vertex="1">
                    <mxGeometry x="100" y="278" width="100" height="50" as="geometry"/>
                </mxCell>
                <mxCell id="fIdX4Pt1htxG96-3jqpG-47" style="edgeStyle=orthogonalEdgeStyle;html=1;" parent="5" source="eimfiaYAnzhwU4aO0XSJ-49" target="fIdX4Pt1htxG96-3jqpG-45" edge="1">
                    <mxGeometry relative="1" as="geometry"/>
                </mxCell>
                <mxCell id="fIdX4Pt1htxG96-3jqpG-48" value="Yes" style="edgeLabel;html=1;align=center;verticalAlign=middle;resizable=0;points=[];" parent="fIdX4Pt1htxG96-3jqpG-47" vertex="1" connectable="0">
                    <mxGeometry x="-0.5122" y="2" relative="1" as="geometry">
                        <mxPoint y="1" as="offset"/>
                    </mxGeometry>
                </mxCell>
                <mxCell id="eimfiaYAnzhwU4aO0XSJ-49" value="Available?" style="rhombus;whiteSpace=wrap;html=1;" parent="5" vertex="1">
                    <mxGeometry x="110" y="388" width="80" height="80" as="geometry"/>
                </mxCell>
                <mxCell id="fIdX4Pt1htxG96-3jqpG-49" style="edgeStyle=orthogonalEdgeStyle;html=1;" parent="5" source="fIdX4Pt1htxG96-3jqpG-45" edge="1">
                    <mxGeometry relative="1" as="geometry">
                        <mxPoint x="150" y="599" as="targetPoint"/>
                    </mxGeometry>
                </mxCell>
                <mxCell id="fIdX4Pt1htxG96-3jqpG-45" value="Submit Request" style="rounded=0;whiteSpace=wrap;html=1;" parent="5" vertex="1">
                    <mxGeometry x="100" y="509" width="100" height="50" as="geometry"/>
                </mxCell>
                <mxCell id="Mlo7qx1cXoMHDnj-Wq_2-43" value="B" style="ellipse;whiteSpace=wrap;html=1;" parent="5" vertex="1">
                    <mxGeometry x="123.5" y="597.5" width="53" height="53" as="geometry"/>
                </mxCell>
                <mxCell id="Mlo7qx1cXoMHDnj-Wq_2-47" value="A" style="ellipse;whiteSpace=wrap;html=1;" parent="5" vertex="1">
                    <mxGeometry x="123.5" y="728" width="53" height="53" as="geometry"/>
                </mxCell>
                <mxCell id="eimfiaYAnzhwU4aO0XSJ-115" style="edgeStyle=orthogonalEdgeStyle;html=1;entryX=0;entryY=0.5;entryDx=0;entryDy=0;" parent="2" source="eimfiaYAnzhwU4aO0XSJ-41" target="eimfiaYAnzhwU4aO0XSJ-114" edge="1">
                    <mxGeometry relative="1" as="geometry"/>
                </mxCell>
                <mxCell id="eimfiaYAnzhwU4aO0XSJ-117" value="Yes" style="edgeLabel;html=1;align=center;verticalAlign=middle;resizable=0;points=[];" parent="eimfiaYAnzhwU4aO0XSJ-115" vertex="1" connectable="0">
                    <mxGeometry x="-0.7325" y="1" relative="1" as="geometry">
                        <mxPoint as="offset"/>
                    </mxGeometry>
                </mxCell>
                <mxCell id="47v2Y7hkr8jVsnxDOxSQ-75" style="edgeStyle=orthogonalEdgeStyle;html=1;" parent="2" source="26" target="30" edge="1">
                    <mxGeometry relative="1" as="geometry"/>
                </mxCell>
                <mxCell id="fIdX4Pt1htxG96-3jqpG-43" value="" style="edgeStyle=orthogonalEdgeStyle;html=1;" parent="2" source="eimfiaYAnzhwU4aO0XSJ-49" target="fIdX4Pt1htxG96-3jqpG-42" edge="1">
                    <mxGeometry relative="1" as="geometry"/>
                </mxCell>
                <mxCell id="fIdX4Pt1htxG96-3jqpG-44" value="No" style="edgeLabel;html=1;align=center;verticalAlign=middle;resizable=0;points=[];" parent="fIdX4Pt1htxG96-3jqpG-43" vertex="1" connectable="0">
                    <mxGeometry x="-0.6532" y="2" relative="1" as="geometry">
                        <mxPoint as="offset"/>
                    </mxGeometry>
                </mxCell>
                <mxCell id="fIdX4Pt1htxG96-3jqpG-54" style="edgeStyle=orthogonalEdgeStyle;html=1;" parent="2" source="fIdX4Pt1htxG96-3jqpG-42" target="fIdX4Pt1htxG96-3jqpG-45" edge="1">
                    <mxGeometry relative="1" as="geometry"/>
                </mxCell>
                <mxCell id="fIdX4Pt1htxG96-3jqpG-55" value="Yes" style="edgeLabel;html=1;align=center;verticalAlign=middle;resizable=0;points=[];" parent="fIdX4Pt1htxG96-3jqpG-54" vertex="1" connectable="0">
                    <mxGeometry x="-0.7219" y="-3" relative="1" as="geometry">
                        <mxPoint as="offset"/>
                    </mxGeometry>
                </mxCell>
                <mxCell id="eimfiaYAnzhwU4aO0XSJ-63" style="edgeStyle=orthogonalEdgeStyle;html=1;entryX=0;entryY=0.5;entryDx=0;entryDy=0;" parent="1" target="37" edge="1">
                    <mxGeometry relative="1" as="geometry">
                        <mxPoint x="119.75" y="1221.5" as="sourcePoint"/>
                    </mxGeometry>
                </mxCell>
            </root>
        </mxGraphModel>
    </diagram>
    <diagram name="Return_Tools" id="CZ6Vp9mwM6UztZHVTadG">
        <mxGraphModel dx="1293" dy="717" grid="1" gridSize="10" guides="1" tooltips="1" connect="1" arrows="1" fold="1" page="1" pageScale="1" pageWidth="850" pageHeight="1100" math="0" shadow="0">
            <root>
                <mxCell id="m_HPm9V1bg0GkpeiMmyo-0"/>
                <mxCell id="m_HPm9V1bg0GkpeiMmyo-1" parent="m_HPm9V1bg0GkpeiMmyo-0"/>
                <mxCell id="m_HPm9V1bg0GkpeiMmyo-2" value="Flow Process Return Tools" style="swimlane;whiteSpace=wrap;html=1;" parent="m_HPm9V1bg0GkpeiMmyo-1" vertex="1">
                    <mxGeometry x="40" y="40" width="620" height="600" as="geometry"/>
                </mxCell>
                <mxCell id="m_HPm9V1bg0GkpeiMmyo-3" value="User" style="swimlane;whiteSpace=wrap;html=1;" parent="m_HPm9V1bg0GkpeiMmyo-2" vertex="1">
                    <mxGeometry y="23" width="320" height="577" as="geometry"/>
                </mxCell>
                <mxCell id="m_HPm9V1bg0GkpeiMmyo-5" value="Start" style="ellipse;whiteSpace=wrap;html=1;" parent="m_HPm9V1bg0GkpeiMmyo-3" vertex="1">
                    <mxGeometry x="120.5" y="57" width="79.5" height="53" as="geometry"/>
                </mxCell>
                <mxCell id="m_HPm9V1bg0GkpeiMmyo-21" value="Tool Store" style="swimlane;whiteSpace=wrap;html=1;" parent="m_HPm9V1bg0GkpeiMmyo-2" vertex="1">
                    <mxGeometry x="320" y="22" width="300" height="578" as="geometry"/>
                </mxCell>
                <mxCell id="04b35J7w0alK0fBIoPlr-1" style="edgeStyle=orthogonalEdgeStyle;html=1;" parent="m_HPm9V1bg0GkpeiMmyo-21" source="m_HPm9V1bg0GkpeiMmyo-23" target="04b35J7w0alK0fBIoPlr-0" edge="1">
                    <mxGeometry relative="1" as="geometry"/>
                </mxCell>
                <mxCell id="m_HPm9V1bg0GkpeiMmyo-23" value="Select / Scan Barcode Tools" style="rounded=0;whiteSpace=wrap;html=1;" parent="m_HPm9V1bg0GkpeiMmyo-21" vertex="1">
                    <mxGeometry x="100" y="138" width="100" height="50" as="geometry"/>
                </mxCell>
                <mxCell id="04b35J7w0alK0fBIoPlr-8" style="edgeStyle=orthogonalEdgeStyle;html=1;" parent="m_HPm9V1bg0GkpeiMmyo-21" source="04b35J7w0alK0fBIoPlr-0" target="04b35J7w0alK0fBIoPlr-7" edge="1">
                    <mxGeometry relative="1" as="geometry"/>
                </mxCell>
                <mxCell id="04b35J7w0alK0fBIoPlr-9" value="Yes" style="edgeLabel;html=1;align=center;verticalAlign=middle;resizable=0;points=[];" parent="04b35J7w0alK0fBIoPlr-8" vertex="1" connectable="0">
                    <mxGeometry x="-0.04" y="1" relative="1" as="geometry">
                        <mxPoint x="-2" as="offset"/>
                    </mxGeometry>
                </mxCell>
                <mxCell id="04b35J7w0alK0fBIoPlr-13" style="edgeStyle=orthogonalEdgeStyle;html=1;entryX=1;entryY=0.5;entryDx=0;entryDy=0;exitX=1;exitY=0.5;exitDx=0;exitDy=0;" parent="m_HPm9V1bg0GkpeiMmyo-21" source="04b35J7w0alK0fBIoPlr-0" target="04b35J7w0alK0fBIoPlr-10" edge="1">
                    <mxGeometry relative="1" as="geometry">
                        <Array as="points">
                            <mxPoint x="250" y="278"/>
                            <mxPoint x="250" y="488"/>
                        </Array>
                    </mxGeometry>
                </mxCell>
                <mxCell id="04b35J7w0alK0fBIoPlr-14" value="No" style="edgeLabel;html=1;align=center;verticalAlign=middle;resizable=0;points=[];" parent="04b35J7w0alK0fBIoPlr-13" vertex="1" connectable="0">
                    <mxGeometry x="-0.8209" y="-1" relative="1" as="geometry">
                        <mxPoint x="-1" y="-1" as="offset"/>
                    </mxGeometry>
                </mxCell>
                <mxCell id="04b35J7w0alK0fBIoPlr-0" value="Missing / Broken?" style="rhombus;whiteSpace=wrap;html=1;rounded=0;" parent="m_HPm9V1bg0GkpeiMmyo-21" vertex="1">
                    <mxGeometry x="110" y="238" width="80" height="80" as="geometry"/>
                </mxCell>
                <mxCell id="04b35J7w0alK0fBIoPlr-12" style="edgeStyle=orthogonalEdgeStyle;html=1;entryX=0.5;entryY=0;entryDx=0;entryDy=0;" parent="m_HPm9V1bg0GkpeiMmyo-21" source="04b35J7w0alK0fBIoPlr-7" target="04b35J7w0alK0fBIoPlr-10" edge="1">
                    <mxGeometry relative="1" as="geometry"/>
                </mxCell>
                <mxCell id="04b35J7w0alK0fBIoPlr-7" value="Upload BA Missing / Broken" style="rounded=0;whiteSpace=wrap;html=1;" parent="m_HPm9V1bg0GkpeiMmyo-21" vertex="1">
                    <mxGeometry x="100" y="368" width="100" height="50" as="geometry"/>
                </mxCell>
                <mxCell id="04b35J7w0alK0fBIoPlr-10" value="End" style="ellipse;whiteSpace=wrap;html=1;" parent="m_HPm9V1bg0GkpeiMmyo-21" vertex="1">
                    <mxGeometry x="110.5" y="461" width="79.5" height="53" as="geometry"/>
                </mxCell>
                <mxCell id="2dCYkIvOvZHK4JiiK2UW-0" style="edgeStyle=orthogonalEdgeStyle;html=1;entryX=0;entryY=0.5;entryDx=0;entryDy=0;exitX=0.5;exitY=1;exitDx=0;exitDy=0;" parent="m_HPm9V1bg0GkpeiMmyo-2" source="m_HPm9V1bg0GkpeiMmyo-5" target="m_HPm9V1bg0GkpeiMmyo-23" edge="1">
                    <mxGeometry relative="1" as="geometry"/>
                </mxCell>
            </root>
        </mxGraphModel>
    </diagram>
    <diagram name="Booking_Tools" id="I6ZgOoqqfiuahPywEVgc">
        <mxGraphModel dx="1293" dy="717" grid="1" gridSize="10" guides="1" tooltips="1" connect="1" arrows="1" fold="1" page="1" pageScale="1" pageWidth="850" pageHeight="1100" math="0" shadow="0">
            <root>
                <mxCell id="nam0bgTidLnMBmuGbVwj-0"/>
                <mxCell id="nam0bgTidLnMBmuGbVwj-1" parent="nam0bgTidLnMBmuGbVwj-0"/>
                <mxCell id="nam0bgTidLnMBmuGbVwj-2" value="Flow Process Booking Tools" style="swimlane;whiteSpace=wrap;html=1;" parent="nam0bgTidLnMBmuGbVwj-1" vertex="1">
                    <mxGeometry x="40" y="40" width="620" height="1040" as="geometry"/>
                </mxCell>
                <mxCell id="nam0bgTidLnMBmuGbVwj-3" value="User" style="swimlane;whiteSpace=wrap;html=1;" parent="nam0bgTidLnMBmuGbVwj-2" vertex="1">
                    <mxGeometry y="23" width="320" height="1017" as="geometry"/>
                </mxCell>
                <mxCell id="M4RVR8OzEUaASNwxM9vE-1" style="edgeStyle=orthogonalEdgeStyle;html=1;entryX=0.5;entryY=0;entryDx=0;entryDy=0;" parent="nam0bgTidLnMBmuGbVwj-3" source="nam0bgTidLnMBmuGbVwj-4" target="nam0bgTidLnMBmuGbVwj-7" edge="1">
                    <mxGeometry relative="1" as="geometry"/>
                </mxCell>
                <mxCell id="nam0bgTidLnMBmuGbVwj-4" value="Start" style="ellipse;whiteSpace=wrap;html=1;" parent="nam0bgTidLnMBmuGbVwj-3" vertex="1">
                    <mxGeometry x="120.5" y="57" width="79.5" height="53" as="geometry"/>
                </mxCell>
                <mxCell id="2sDPO3eCXmF1i_R1GhkL-1" style="edgeStyle=orthogonalEdgeStyle;html=1;" parent="nam0bgTidLnMBmuGbVwj-3" source="nam0bgTidLnMBmuGbVwj-7" target="2sDPO3eCXmF1i_R1GhkL-0" edge="1">
                    <mxGeometry relative="1" as="geometry"/>
                </mxCell>
                <mxCell id="nam0bgTidLnMBmuGbVwj-7" value="Select Tools" style="rounded=0;whiteSpace=wrap;html=1;" parent="nam0bgTidLnMBmuGbVwj-3" vertex="1">
                    <mxGeometry x="110.25" y="157" width="100" height="50" as="geometry"/>
                </mxCell>
                <mxCell id="ndatilZsyx4RO96XhbZq-0" style="edgeStyle=orthogonalEdgeStyle;html=1;" parent="nam0bgTidLnMBmuGbVwj-3" source="2sDPO3eCXmF1i_R1GhkL-0" target="nam0bgTidLnMBmuGbVwj-12" edge="1">
                    <mxGeometry relative="1" as="geometry"/>
                </mxCell>
                <mxCell id="2sDPO3eCXmF1i_R1GhkL-0" value="Input Jobcard" style="rounded=0;whiteSpace=wrap;html=1;" parent="nam0bgTidLnMBmuGbVwj-3" vertex="1">
                    <mxGeometry x="110.25" y="257" width="100" height="50" as="geometry"/>
                </mxCell>
                <mxCell id="nam0bgTidLnMBmuGbVwj-12" value="Confirm?" style="rhombus;whiteSpace=wrap;html=1;rounded=0;" parent="nam0bgTidLnMBmuGbVwj-3" vertex="1">
                    <mxGeometry x="120" y="357" width="80" height="80" as="geometry"/>
                </mxCell>
                <mxCell id="nam0bgTidLnMBmuGbVwj-5" value="Tool Store" style="swimlane;whiteSpace=wrap;html=1;" parent="nam0bgTidLnMBmuGbVwj-2" vertex="1">
                    <mxGeometry x="320" y="22" width="300" height="1018" as="geometry"/>
                </mxCell>
                <mxCell id="-Yv0v8Eth1TayQW5VkZz-1" style="edgeStyle=orthogonalEdgeStyle;html=1;" parent="nam0bgTidLnMBmuGbVwj-5" source="nam0bgTidLnMBmuGbVwj-14" target="nam0bgTidLnMBmuGbVwj-15" edge="1">
                    <mxGeometry relative="1" as="geometry"/>
                </mxCell>
                <mxCell id="nam0bgTidLnMBmuGbVwj-14" value="Record at Booking List &amp;amp; Send Notification" style="rounded=0;whiteSpace=wrap;html=1;" parent="nam0bgTidLnMBmuGbVwj-5" vertex="1">
                    <mxGeometry x="100" y="373" width="100" height="50" as="geometry"/>
                </mxCell>
                <mxCell id="nam0bgTidLnMBmuGbVwj-15" value="End" style="ellipse;whiteSpace=wrap;html=1;" parent="nam0bgTidLnMBmuGbVwj-5" vertex="1">
                    <mxGeometry x="110.25" y="471.5" width="79.5" height="53" as="geometry"/>
                </mxCell>
                <mxCell id="ndatilZsyx4RO96XhbZq-3" style="edgeStyle=orthogonalEdgeStyle;html=1;entryX=0;entryY=0.5;entryDx=0;entryDy=0;" parent="nam0bgTidLnMBmuGbVwj-2" source="nam0bgTidLnMBmuGbVwj-12" target="nam0bgTidLnMBmuGbVwj-14" edge="1">
                    <mxGeometry relative="1" as="geometry"/>
                </mxCell>
                <mxCell id="-Yv0v8Eth1TayQW5VkZz-0" value="Yes" style="edgeLabel;html=1;align=center;verticalAlign=middle;resizable=0;points=[];" parent="ndatilZsyx4RO96XhbZq-3" vertex="1" connectable="0">
                    <mxGeometry x="-0.8" relative="1" as="geometry">
                        <mxPoint x="-1" as="offset"/>
                    </mxGeometry>
                </mxCell>
                <mxCell id="JD4DnLBSM2CmaIETcS97-0" style="edgeStyle=orthogonalEdgeStyle;html=1;entryX=0;entryY=0.5;entryDx=0;entryDy=0;exitX=0.5;exitY=1;exitDx=0;exitDy=0;" parent="nam0bgTidLnMBmuGbVwj-2" source="nam0bgTidLnMBmuGbVwj-12" target="nam0bgTidLnMBmuGbVwj-15" edge="1">
                    <mxGeometry relative="1" as="geometry"/>
                </mxCell>
                <mxCell id="JD4DnLBSM2CmaIETcS97-1" value="No" style="edgeLabel;html=1;align=center;verticalAlign=middle;resizable=0;points=[];" parent="JD4DnLBSM2CmaIETcS97-0" vertex="1" connectable="0">
                    <mxGeometry x="-0.8971" y="-2" relative="1" as="geometry">
                        <mxPoint as="offset"/>
                    </mxGeometry>
                </mxCell>
            </root>
        </mxGraphModel>
    </diagram>
    <diagram name="Copy of Request_Tools" id="zzSslBOhiWqBz03noyA4">
        <mxGraphModel grid="1" page="1" gridSize="10" guides="1" tooltips="1" connect="1" arrows="1" fold="1" pageScale="1" pageWidth="850" pageHeight="1100" math="0" shadow="0">
            <root>
                <mxCell id="oe8DR13susEnbYOZNp_h-0"/>
                <mxCell id="oe8DR13susEnbYOZNp_h-1" parent="oe8DR13susEnbYOZNp_h-0"/>
                <mxCell id="oe8DR13susEnbYOZNp_h-2" value="Flow Process Request Tools" style="swimlane;whiteSpace=wrap;html=1;" vertex="1" parent="oe8DR13susEnbYOZNp_h-1">
                    <mxGeometry x="40" y="40" width="780" height="920" as="geometry"/>
                </mxCell>
                <mxCell id="oe8DR13susEnbYOZNp_h-3" value="User" style="swimlane;whiteSpace=wrap;html=1;" vertex="1" parent="oe8DR13susEnbYOZNp_h-2">
                    <mxGeometry y="23" width="320" height="897" as="geometry"/>
                </mxCell>
                <mxCell id="oe8DR13susEnbYOZNp_h-4" value="" style="edgeStyle=orthogonalEdgeStyle;html=1;" edge="1" parent="oe8DR13susEnbYOZNp_h-3" source="oe8DR13susEnbYOZNp_h-5" target="oe8DR13susEnbYOZNp_h-15">
                    <mxGeometry relative="1" as="geometry"/>
                </mxCell>
                <mxCell id="oe8DR13susEnbYOZNp_h-5" value="Start" style="ellipse;whiteSpace=wrap;html=1;" vertex="1" parent="oe8DR13susEnbYOZNp_h-3">
                    <mxGeometry x="120.5" y="57" width="79.5" height="53" as="geometry"/>
                </mxCell>
                <mxCell id="oe8DR13susEnbYOZNp_h-6" style="edgeStyle=orthogonalEdgeStyle;html=1;" edge="1" parent="oe8DR13susEnbYOZNp_h-3" source="oe8DR13susEnbYOZNp_h-10" target="oe8DR13susEnbYOZNp_h-11">
                    <mxGeometry relative="1" as="geometry"/>
                </mxCell>
                <mxCell id="oe8DR13susEnbYOZNp_h-7" value="No" style="edgeLabel;html=1;align=center;verticalAlign=middle;resizable=0;points=[];" vertex="1" connectable="0" parent="oe8DR13susEnbYOZNp_h-6">
                    <mxGeometry x="-0.1317" relative="1" as="geometry">
                        <mxPoint y="-1" as="offset"/>
                    </mxGeometry>
                </mxCell>
                <mxCell id="oe8DR13susEnbYOZNp_h-8" style="edgeStyle=orthogonalEdgeStyle;html=1;" edge="1" parent="oe8DR13susEnbYOZNp_h-3" source="oe8DR13susEnbYOZNp_h-10" target="oe8DR13susEnbYOZNp_h-12">
                    <mxGeometry relative="1" as="geometry"/>
                </mxCell>
                <mxCell id="oe8DR13susEnbYOZNp_h-9" value="Yes" style="edgeLabel;html=1;align=center;verticalAlign=middle;resizable=0;points=[];" vertex="1" connectable="0" parent="oe8DR13susEnbYOZNp_h-8">
                    <mxGeometry x="-0.3275" y="-3" relative="1" as="geometry">
                        <mxPoint y="1" as="offset"/>
                    </mxGeometry>
                </mxCell>
                <mxCell id="oe8DR13susEnbYOZNp_h-10" value="Confirm?" style="rhombus;whiteSpace=wrap;html=1;rounded=0;" vertex="1" parent="oe8DR13susEnbYOZNp_h-3">
                    <mxGeometry x="119.75" y="685" width="80" height="80" as="geometry"/>
                </mxCell>
                <mxCell id="oe8DR13susEnbYOZNp_h-11" value="A" style="ellipse;whiteSpace=wrap;html=1;aspect=fixed;fillColor=#330000;" vertex="1" parent="oe8DR13susEnbYOZNp_h-3">
                    <mxGeometry x="133.25" y="590" width="53" height="53" as="geometry"/>
                </mxCell>
                <mxCell id="oe8DR13susEnbYOZNp_h-12" value="End" style="ellipse;whiteSpace=wrap;html=1;" vertex="1" parent="oe8DR13susEnbYOZNp_h-3">
                    <mxGeometry x="119.75" y="805" width="79.5" height="53" as="geometry"/>
                </mxCell>
                <mxCell id="oe8DR13susEnbYOZNp_h-13" style="edgeStyle=orthogonalEdgeStyle;html=1;" edge="1" parent="oe8DR13susEnbYOZNp_h-3" source="oe8DR13susEnbYOZNp_h-15" target="oe8DR13susEnbYOZNp_h-21">
                    <mxGeometry relative="1" as="geometry"/>
                </mxCell>
                <mxCell id="oe8DR13susEnbYOZNp_h-14" value="No" style="edgeLabel;html=1;align=center;verticalAlign=middle;resizable=0;points=[];" vertex="1" connectable="0" parent="oe8DR13susEnbYOZNp_h-13">
                    <mxGeometry x="-0.0513" y="4" relative="1" as="geometry">
                        <mxPoint y="-4" as="offset"/>
                    </mxGeometry>
                </mxCell>
                <mxCell id="oe8DR13susEnbYOZNp_h-15" value="Booking?" style="rhombus;whiteSpace=wrap;html=1;" vertex="1" parent="oe8DR13susEnbYOZNp_h-3">
                    <mxGeometry x="119.75" y="157" width="80" height="80" as="geometry"/>
                </mxCell>
                <mxCell id="oe8DR13susEnbYOZNp_h-16" style="edgeStyle=orthogonalEdgeStyle;html=1;" edge="1" parent="oe8DR13susEnbYOZNp_h-3" source="oe8DR13susEnbYOZNp_h-20" target="oe8DR13susEnbYOZNp_h-22">
                    <mxGeometry relative="1" as="geometry"/>
                </mxCell>
                <mxCell id="oe8DR13susEnbYOZNp_h-17" value="No" style="edgeLabel;html=1;align=center;verticalAlign=middle;resizable=0;points=[];" vertex="1" connectable="0" parent="oe8DR13susEnbYOZNp_h-16">
                    <mxGeometry x="-0.2468" y="1" relative="1" as="geometry">
                        <mxPoint y="-1" as="offset"/>
                    </mxGeometry>
                </mxCell>
                <mxCell id="oe8DR13susEnbYOZNp_h-18" style="edgeStyle=orthogonalEdgeStyle;html=1;" edge="1" parent="oe8DR13susEnbYOZNp_h-3" source="oe8DR13susEnbYOZNp_h-20" target="oe8DR13susEnbYOZNp_h-23">
                    <mxGeometry relative="1" as="geometry"/>
                </mxCell>
                <mxCell id="oe8DR13susEnbYOZNp_h-19" value="Yes" style="edgeLabel;html=1;align=center;verticalAlign=middle;resizable=0;points=[];" vertex="1" connectable="0" parent="oe8DR13susEnbYOZNp_h-18">
                    <mxGeometry x="-0.2504" y="2" relative="1" as="geometry">
                        <mxPoint x="-3" as="offset"/>
                    </mxGeometry>
                </mxCell>
                <mxCell id="oe8DR13susEnbYOZNp_h-20" value="Continue?" style="rhombus;whiteSpace=wrap;html=1;" vertex="1" parent="oe8DR13susEnbYOZNp_h-3">
                    <mxGeometry x="120.25" y="273" width="80" height="80" as="geometry"/>
                </mxCell>
                <mxCell id="oe8DR13susEnbYOZNp_h-21" value="A" style="ellipse;whiteSpace=wrap;html=1;aspect=fixed;fillColor=#330000;" vertex="1" parent="oe8DR13susEnbYOZNp_h-3">
                    <mxGeometry x="26" y="170.5" width="53" height="53" as="geometry"/>
                </mxCell>
                <mxCell id="oe8DR13susEnbYOZNp_h-22" value="C" style="ellipse;whiteSpace=wrap;html=1;aspect=fixed;fillColor=#330000;" vertex="1" parent="oe8DR13susEnbYOZNp_h-3">
                    <mxGeometry x="26" y="286.5" width="53" height="53" as="geometry"/>
                </mxCell>
                <mxCell id="oe8DR13susEnbYOZNp_h-23" value="C" style="ellipse;whiteSpace=wrap;html=1;aspect=fixed;fillColor=#330000;" vertex="1" parent="oe8DR13susEnbYOZNp_h-3">
                    <mxGeometry x="133.25" y="397" width="53" height="53" as="geometry"/>
                </mxCell>
                <mxCell id="oe8DR13susEnbYOZNp_h-24" value="System" style="swimlane;whiteSpace=wrap;html=1;" vertex="1" parent="oe8DR13susEnbYOZNp_h-2">
                    <mxGeometry x="320" y="23" width="160" height="897" as="geometry"/>
                </mxCell>
                <mxCell id="oe8DR13susEnbYOZNp_h-25" value="Record at Cart List" style="rounded=0;whiteSpace=wrap;html=1;" vertex="1" parent="oe8DR13susEnbYOZNp_h-24">
                    <mxGeometry x="30" y="287" width="100" height="50" as="geometry"/>
                </mxCell>
                <mxCell id="oe8DR13susEnbYOZNp_h-26" value="Tool Store" style="swimlane;whiteSpace=wrap;html=1;" vertex="1" parent="oe8DR13susEnbYOZNp_h-2">
                    <mxGeometry x="480" y="23" width="300" height="897" as="geometry"/>
                </mxCell>
                <mxCell id="oe8DR13susEnbYOZNp_h-27" style="edgeStyle=orthogonalEdgeStyle;html=1;entryX=0.5;entryY=0;entryDx=0;entryDy=0;" edge="1" parent="oe8DR13susEnbYOZNp_h-26" source="oe8DR13susEnbYOZNp_h-28" target="oe8DR13susEnbYOZNp_h-30">
                    <mxGeometry relative="1" as="geometry"/>
                </mxCell>
                <mxCell id="oe8DR13susEnbYOZNp_h-28" value="Select / Scan Barcode Tools" style="rounded=0;whiteSpace=wrap;html=1;" vertex="1" parent="oe8DR13susEnbYOZNp_h-26">
                    <mxGeometry x="100" y="498" width="100" height="50" as="geometry"/>
                </mxCell>
                <mxCell id="oe8DR13susEnbYOZNp_h-29" style="edgeStyle=orthogonalEdgeStyle;html=1;" edge="1" parent="oe8DR13susEnbYOZNp_h-26" source="oe8DR13susEnbYOZNp_h-30" target="oe8DR13susEnbYOZNp_h-31">
                    <mxGeometry relative="1" as="geometry"/>
                </mxCell>
                <mxCell id="oe8DR13susEnbYOZNp_h-30" value="Input / Scan ID Card" style="rounded=0;whiteSpace=wrap;html=1;" vertex="1" parent="oe8DR13susEnbYOZNp_h-26">
                    <mxGeometry x="100" y="598" width="100" height="50" as="geometry"/>
                </mxCell>
                <mxCell id="oe8DR13susEnbYOZNp_h-31" value="Input / Scan Jobcard" style="rounded=0;whiteSpace=wrap;html=1;" vertex="1" parent="oe8DR13susEnbYOZNp_h-26">
                    <mxGeometry x="100" y="698" width="100" height="50" as="geometry"/>
                </mxCell>
                <mxCell id="oe8DR13susEnbYOZNp_h-32" style="edgeStyle=orthogonalEdgeStyle;html=1;" edge="1" parent="oe8DR13susEnbYOZNp_h-26" source="oe8DR13susEnbYOZNp_h-33" target="oe8DR13susEnbYOZNp_h-28">
                    <mxGeometry relative="1" as="geometry"/>
                </mxCell>
                <mxCell id="oe8DR13susEnbYOZNp_h-33" value="A" style="ellipse;whiteSpace=wrap;html=1;aspect=fixed;fillColor=#00331A;" vertex="1" parent="oe8DR13susEnbYOZNp_h-26">
                    <mxGeometry x="123.5" y="398" width="53" height="53" as="geometry"/>
                </mxCell>
                <mxCell id="oe8DR13susEnbYOZNp_h-34" style="edgeStyle=orthogonalEdgeStyle;html=1;" edge="1" parent="oe8DR13susEnbYOZNp_h-26" source="oe8DR13susEnbYOZNp_h-35" target="oe8DR13susEnbYOZNp_h-30">
                    <mxGeometry relative="1" as="geometry"/>
                </mxCell>
                <mxCell id="oe8DR13susEnbYOZNp_h-35" value="B" style="ellipse;whiteSpace=wrap;html=1;aspect=fixed;fillColor=#00331A;" vertex="1" parent="oe8DR13susEnbYOZNp_h-26">
                    <mxGeometry x="10" y="596.5" width="53" height="53" as="geometry"/>
                </mxCell>
                <mxCell id="oe8DR13susEnbYOZNp_h-36" value="Select Booking" style="rounded=0;whiteSpace=wrap;html=1;" vertex="1" parent="oe8DR13susEnbYOZNp_h-26">
                    <mxGeometry x="100" y="173" width="100" height="50" as="geometry"/>
                </mxCell>
                <mxCell id="oe8DR13susEnbYOZNp_h-37" style="edgeStyle=orthogonalEdgeStyle;html=1;entryX=1;entryY=0.5;entryDx=0;entryDy=0;" edge="1" parent="oe8DR13susEnbYOZNp_h-2" source="oe8DR13susEnbYOZNp_h-31" target="oe8DR13susEnbYOZNp_h-10">
                    <mxGeometry relative="1" as="geometry">
                        <mxPoint x="449.9999999999998" y="747.0000000000002" as="targetPoint"/>
                    </mxGeometry>
                </mxCell>
                <mxCell id="oe8DR13susEnbYOZNp_h-38" style="edgeStyle=orthogonalEdgeStyle;html=1;entryX=1;entryY=0.5;entryDx=0;entryDy=0;" edge="1" parent="oe8DR13susEnbYOZNp_h-2" source="oe8DR13susEnbYOZNp_h-25" target="oe8DR13susEnbYOZNp_h-20">
                    <mxGeometry relative="1" as="geometry"/>
                </mxCell>
                <mxCell id="oe8DR13susEnbYOZNp_h-39" style="edgeStyle=orthogonalEdgeStyle;html=1;entryX=0;entryY=0.5;entryDx=0;entryDy=0;" edge="1" parent="oe8DR13susEnbYOZNp_h-2" source="oe8DR13susEnbYOZNp_h-15" target="oe8DR13susEnbYOZNp_h-36">
                    <mxGeometry relative="1" as="geometry"/>
                </mxCell>
                <mxCell id="oe8DR13susEnbYOZNp_h-40" value="Yes" style="edgeLabel;html=1;align=center;verticalAlign=middle;resizable=0;points=[];" vertex="1" connectable="0" parent="oe8DR13susEnbYOZNp_h-39">
                    <mxGeometry x="-0.7325" y="1" relative="1" as="geometry">
                        <mxPoint as="offset"/>
                    </mxGeometry>
                </mxCell>
                <mxCell id="oe8DR13susEnbYOZNp_h-41" style="edgeStyle=orthogonalEdgeStyle;html=1;entryX=1;entryY=0.5;entryDx=0;entryDy=0;exitX=0.5;exitY=1;exitDx=0;exitDy=0;" edge="1" parent="oe8DR13susEnbYOZNp_h-2" source="oe8DR13susEnbYOZNp_h-36" target="oe8DR13susEnbYOZNp_h-25">
                    <mxGeometry relative="1" as="geometry"/>
                </mxCell>
                <mxCell id="oe8DR13susEnbYOZNp_h-42" style="edgeStyle=orthogonalEdgeStyle;html=1;entryX=0;entryY=0.5;entryDx=0;entryDy=0;" edge="1" parent="oe8DR13susEnbYOZNp_h-1" source="oe8DR13susEnbYOZNp_h-43" target="oe8DR13susEnbYOZNp_h-12">
                    <mxGeometry relative="1" as="geometry"/>
                </mxCell>
                <mxCell id="oe8DR13susEnbYOZNp_h-43" value="C" style="ellipse;whiteSpace=wrap;html=1;aspect=fixed;fillColor=#00331A;" vertex="1" parent="oe8DR13susEnbYOZNp_h-1">
                    <mxGeometry x="66" y="868" width="53" height="53" as="geometry"/>
                </mxCell>
            </root>
        </mxGraphModel>
    </diagram>
</mxfile>